<?xml version="1.0" encoding="utf-8"?>
<svg width="32px" height="32px" viewBox="0 0 32 32" version="1.1" xmlns:xlink="http://www.w3.org/1999/xlink" xmlns="http://www.w3.org/2000/svg">
  <desc>Created with Lunacy</desc>
  <defs>
    <rect width="32" height="32" id="artboard_1" />
    <clipPath id="clip_1">
      <use xlink:href="#artboard_1" clip-rule="evenodd" />
    </clipPath>
  </defs>
  <g id="crosshair" clip-path="url(#clip_1)">
    <use xlink:href="#artboard_1" stroke="none" fill="#A2E9FF" fill-opacity="0" />
    <path d="M22 0L27.001 0Q27.1237 0 27.2463 0.00602151Q27.3689 0.012043 27.491 0.0240715Q27.6131 0.0361001 27.7345 0.0541066Q27.8559 0.0721132 27.9763 0.0960544Q28.0966 0.119996 28.2157 0.149814Q28.3347 0.179632 28.4521 0.215255Q28.5696 0.250879 28.6851 0.292221Q28.8007 0.333564 28.914 0.380526Q29.0274 0.427489 29.1383 0.479957Q29.2493 0.532426 29.3575 0.590276Q29.4657 0.648125 29.571 0.711215Q29.6763 0.774305 29.7783 0.842483Q29.8803 0.910662 29.9789 0.983765Q30.0775 1.05687 30.1723 1.13472Q30.2672 1.21257 30.3581 1.29499Q30.449 1.3774 30.5358 1.46417Q30.6226 1.55095 30.705 1.64188Q30.7874 1.73281 30.8653 1.82767Q30.9431 1.92253 31.0162 2.0211Q31.0893 2.11967 31.1575 2.2217Q31.2257 2.32374 31.2888 2.429Q31.3519 2.53426 31.4097 2.64249Q31.4676 2.75072 31.52 2.86165Q31.5725 2.97259 31.6195 3.08597Q31.6664 3.19934 31.7078 3.31489Q31.7491 3.43043 31.7847 3.54787Q31.8204 3.6653 31.8502 3.78434Q31.88 3.90338 31.9039 4.02374Q31.9279 4.1441 31.9459 4.26549Q31.9639 4.38688 31.9759 4.50901Q31.988 4.63114 31.994 4.75371Q32 4.87628 32 4.999L32 10L30 10L30 4.999Q30 4.85167 29.9856 4.70505Q29.9711 4.55842 29.9424 4.41392Q29.9136 4.26942 29.8709 4.12844Q29.8281 3.98745 29.7717 3.85133Q29.7153 3.71522 29.6459 3.58528Q29.5764 3.45535 29.4946 3.33284Q29.4127 3.21034 29.3193 3.09645Q29.2258 2.98257 29.1216 2.87839Q29.0174 2.77421 28.9035 2.68074Q28.7897 2.58728 28.6672 2.50542Q28.5447 2.42357 28.4147 2.35412Q28.2848 2.28467 28.1487 2.22829Q28.0125 2.1719 27.8716 2.12914Q27.7306 2.08637 27.5861 2.05762Q27.4416 2.02888 27.295 2.01444Q27.1483 2 27.001 2L22 2L22 0ZM10 0L4.999 0Q4.87628 0 4.75371 0.00602151Q4.63114 0.012043 4.50901 0.0240715Q4.38688 0.0361001 4.26549 0.0541066Q4.1441 0.0721132 4.02374 0.0960544Q3.90338 0.119996 3.78434 0.149814Q3.6653 0.179632 3.54787 0.215255Q3.43043 0.250879 3.31489 0.292221Q3.19934 0.333564 3.08597 0.380526Q2.97259 0.427489 2.86165 0.479957Q2.75072 0.532426 2.64249 0.590276Q2.53426 0.648125 2.429 0.711215Q2.32374 0.774305 2.2217 0.842483Q2.11967 0.910662 2.0211 0.983765Q1.92253 1.05687 1.82767 1.13472Q1.73281 1.21257 1.64188 1.29499Q1.55095 1.3774 1.46417 1.46417Q1.3774 1.55095 1.29499 1.64188Q1.21257 1.73281 1.13472 1.82767Q1.05687 1.92253 0.983765 2.0211Q0.910662 2.11967 0.842483 2.2217Q0.774305 2.32374 0.711215 2.429Q0.648125 2.53426 0.590276 2.64249Q0.532426 2.75072 0.479957 2.86165Q0.427489 2.97259 0.380526 3.08597Q0.333564 3.19934 0.292221 3.31489Q0.250879 3.43043 0.215255 3.54787Q0.179632 3.6653 0.149814 3.78434Q0.119996 3.90338 0.0960544 4.02374Q0.0721132 4.1441 0.0541066 4.26549Q0.0361001 4.38688 0.0240715 4.50901Q0.012043 4.63114 0.00602151 4.75371Q0 4.87628 0 4.999L0 10L2 10L2 4.999Q2 4.85167 2.01444 4.70505Q2.02888 4.55842 2.05762 4.41392Q2.08637 4.26942 2.12914 4.12844Q2.1719 3.98745 2.22828 3.85133Q2.28467 3.71522 2.35412 3.58528Q2.42357 3.45535 2.50542 3.33284Q2.58728 3.21034 2.68074 3.09645Q2.77421 2.98257 2.87839 2.87839Q2.98257 2.77421 3.09645 2.68074Q3.21034 2.58728 3.33284 2.50542Q3.45535 2.42357 3.58528 2.35412Q3.71522 2.28467 3.85133 2.22829Q3.98745 2.1719 4.12844 2.12914Q4.26942 2.08637 4.41392 2.05762Q4.55842 2.02888 4.70505 2.01444Q4.85167 2 4.999 2L10 2L10 0ZM2 22L0 22L0 27.001Q0 27.1237 0.00602151 27.2463Q0.012043 27.3689 0.0240715 27.491Q0.0361001 27.6131 0.0541066 27.7345Q0.0721132 27.8559 0.0960544 27.9763Q0.119996 28.0966 0.149814 28.2157Q0.179632 28.3347 0.215255 28.4521Q0.250879 28.5696 0.292221 28.6851Q0.333564 28.8007 0.380526 28.914Q0.427489 29.0274 0.479957 29.1383Q0.532426 29.2493 0.590276 29.3575Q0.648125 29.4657 0.711215 29.571Q0.774305 29.6763 0.842483 29.7783Q0.910662 29.8803 0.983765 29.9789Q1.05687 30.0775 1.13472 30.1723Q1.21257 30.2672 1.29499 30.3581Q1.3774 30.449 1.46417 30.5358Q1.55095 30.6226 1.64188 30.705Q1.73281 30.7874 1.82767 30.8653Q1.92253 30.9431 2.0211 31.0162Q2.11967 31.0893 2.2217 31.1575Q2.32374 31.2257 2.429 31.2888Q2.53426 31.3519 2.64249 31.4097Q2.75072 31.4676 2.86165 31.52Q2.97259 31.5725 3.08597 31.6195Q3.19934 31.6664 3.31489 31.7078Q3.43043 31.7491 3.54787 31.7847Q3.6653 31.8204 3.78434 31.8502Q3.90338 31.88 4.02374 31.9039Q4.1441 31.9279 4.26549 31.9459Q4.38688 31.9639 4.50901 31.9759Q4.63114 31.988 4.75371 31.994Q4.87628 32 4.999 32L10 32L10 30L4.999 30Q4.85167 30 4.70505 29.9856Q4.55842 29.9711 4.41392 29.9424Q4.26942 29.9136 4.12844 29.8709Q3.98745 29.8281 3.85133 29.7717Q3.71522 29.7153 3.58528 29.6459Q3.45535 29.5764 3.33284 29.4946Q3.21034 29.4127 3.09645 29.3193Q2.98257 29.2258 2.87839 29.1216Q2.77421 29.0174 2.68074 28.9035Q2.58728 28.7897 2.50542 28.6672Q2.42357 28.5447 2.35412 28.4147Q2.28467 28.2848 2.22828 28.1487Q2.1719 28.0125 2.12914 27.8716Q2.08637 27.7306 2.05762 27.5861Q2.02888 27.4416 2.01444 27.295Q2 27.1483 2 27.001L2 22ZM22 30L22 32L27.001 32Q27.1237 32 27.2463 31.994Q27.3689 31.988 27.491 31.9759Q27.6131 31.9639 27.7345 31.9459Q27.8559 31.9279 27.9763 31.9039Q28.0966 31.88 28.2157 31.8502Q28.3347 31.8204 28.4521 31.7847Q28.5696 31.7491 28.6851 31.7078Q28.8007 31.6664 28.914 31.6195Q29.0274 31.5725 29.1383 31.52Q29.2493 31.4676 29.3575 31.4097Q29.4657 31.3519 29.571 31.2888Q29.6763 31.2257 29.7783 31.1575Q29.8803 31.0893 29.9789 31.0162Q30.0775 30.9431 30.1723 30.8653Q30.2672 30.7874 30.3581 30.705Q30.449 30.6226 30.5358 30.5358Q30.6226 30.4491 30.705 30.3581Q30.7874 30.2672 30.8653 30.1723Q30.9431 30.0775 31.0162 29.9789Q31.0893 29.8803 31.1575 29.7783Q31.2257 29.6763 31.2888 29.571Q31.3519 29.4657 31.4097 29.3575Q31.4676 29.2493 31.52 29.1383Q31.5725 29.0274 31.6195 28.914Q31.6664 28.8007 31.7078 28.6851Q31.7491 28.5696 31.7847 28.4521Q31.8204 28.3347 31.8502 28.2157Q31.88 28.0966 31.9039 27.9763Q31.9279 27.8559 31.9459 27.7345Q31.9639 27.6131 31.9759 27.491Q31.988 27.3689 31.994 27.2463Q32 27.1237 32 27.001L32 22L30 22L30 27.001Q30 27.1483 29.9856 27.295Q29.9711 27.4416 29.9424 27.5861Q29.9136 27.7306 29.8709 27.8716Q29.8281 28.0125 29.7717 28.1487Q29.7153 28.2848 29.6459 28.4147Q29.5764 28.5447 29.4946 28.6672Q29.4127 28.7897 29.3193 28.9035Q29.2258 29.0174 29.1216 29.1216Q29.0174 29.2258 28.9035 29.3193Q28.7897 29.4127 28.6672 29.4946Q28.5447 29.5764 28.4147 29.6459Q28.2848 29.7153 28.1487 29.7717Q28.0125 29.8281 27.8716 29.8709Q27.7306 29.9136 27.5861 29.9424Q27.4416 29.9711 27.295 29.9856Q27.1483 30 27.001 30L22 30Z" id="border-rectangle-minus-fat-cross" fill="#000000" fill-rule="evenodd" stroke="none" />
    <path d="M15 0L17 0L17 5L15 5L15 0ZM5 15L5 17L0 17L0 15L5 15ZM32 17L32 15L27 15L27 17L32 17ZM17 27L15 27L15 32L17 32L17 27Z" id="crosshair" fill="#000000" fill-rule="evenodd" stroke="none" />
  </g>
</svg>