<?xml version="1.0" encoding="utf-8"?>
<svg width="32px" height="32px" viewBox="0 0 32 32" version="1.1" xmlns:xlink="http://www.w3.org/1999/xlink" xmlns="http://www.w3.org/2000/svg">
  <desc>Created with Lunacy</desc>
  <defs>
    <linearGradient x1="0.0235217419" y1="0.333764523" x2="0.7083304" y2="0.486002177" id="gradient_1">
      <stop offset="0" stop-color="#001CFF" />
      <stop offset="0.4984752" stop-color="#6565FF" />
      <stop offset="1" stop-color="#3434FF" />
    </linearGradient>
    <path d="M0.938051 0.623031C2.00435 0.282077 3.83551 -0.161024 5.66667 0.0587654C8.5 0.398843 8.5 1.53243 11.3333 1.87251C13.1645 2.0923 14.9957 1.6492 16.0619 1.30824C16.5875 1.14021 17 1.4129 17 1.96464L17 9.03536C17 9.58709 16.5875 10.2089 16.0619 10.377C14.9957 10.7179 13.1645 11.161 11.3333 10.9412C8.5 10.6012 8.5 9.46757 5.66667 9.12749C4.4049 8.97604 3.54222 8.99805 2.9734 9.06906C2.42592 9.13741 1.90762 8.88713 1.77845 8.35073L0.233889 1.93687C0.104716 1.40047 0.412531 0.791069 0.938051 0.623031Z" transform="translate(3 1)" id="path_1" />
    <rect width="32" height="32" id="artboard_1" />
    <clipPath id="clip_1">
      <use xlink:href="#artboard_1" clip-rule="evenodd" />
    </clipPath>
    <clipPath id="clip_2">
      <use xlink:href="#path_1" />
    </clipPath>
  </defs>
  <g id="flag-local" clip-path="url(#clip_1)">
    <use xlink:href="#artboard_1" stroke="none" fill="#A2E9FF" fill-opacity="0" />
    <g id="Blue-Flag-instance" transform="translate(5.000015 5.000002)">
      <path d="M0 2.5C0 1.11929 2.68629 0 6 0C9.31371 0 12 1.11929 12 2.5C12 3.88071 9.31371 5 6 5C2.68629 5 0 3.88071 0 2.5Z" transform="translate(1 16)" id="Ellipse-2" fill="#000000" fill-opacity="0.4" stroke="none" />
      <path d="M0 3C0 1.34315 3.13401 0 7 0C10.866 0 14 1.34315 14 3C14 4.65685 10.866 6 7 6C3.13401 6 0 4.65685 0 3Z" transform="translate(0 16)" id="Ellipse-3" fill="#000000" fill-opacity="0.4" stroke="none" />
      <path d="M0 2C0 0.89543 2.23858 0 5 0C7.76142 0 10 0.89543 10 2C10 3.10457 7.76142 4 5 4C2.23858 4 0 3.10457 0 2Z" transform="translate(2 16)" id="Ellipse" fill="#000000" fill-opacity="0.4" stroke="none" />
      <g id="flag">
        <use stroke="none" fill="url(#gradient_1)" xlink:href="#path_1" />
        <g clip-path="url(#clip_2)">
          <use xlink:href="#path_1" fill="none" stroke="#373737" stroke-width="1.4" />
        </g>
      </g>
      <path d="M0.999 0L2.001 0Q2.09939 0 2.19589 0.0191955Q2.2924 0.038391 2.3833 0.0760443Q2.4742 0.113698 2.55601 0.168362Q2.63782 0.223026 2.7074 0.2926Q2.77697 0.362175 2.83164 0.443985Q2.8863 0.525796 2.92395 0.616699Q2.96161 0.707602 2.9808 0.804105Q3 0.900607 3 0.999L3 17.001Q3 17.0994 2.9808 17.1959Q2.96161 17.2924 2.92395 17.3833Q2.8863 17.4742 2.83164 17.556Q2.77697 17.6378 2.7074 17.7074Q2.63782 17.777 2.55601 17.8316Q2.4742 17.8863 2.3833 17.924Q2.2924 17.9616 2.19589 17.9808Q2.09939 18 2.001 18L0.999 18Q0.900607 18 0.804105 17.9808Q0.707602 17.9616 0.616699 17.924Q0.525796 17.8863 0.443985 17.8316Q0.362175 17.777 0.2926 17.7074Q0.223026 17.6378 0.168362 17.556Q0.113698 17.4742 0.0760443 17.3833Q0.038391 17.2924 0.0191955 17.1959Q0 17.0994 0 17.001L0 0.999Q0 0.900607 0.0191955 0.804105Q0.038391 0.707602 0.0760443 0.616699Q0.113698 0.525796 0.168362 0.443985Q0.223026 0.362175 0.2926 0.2926Q0.362175 0.223026 0.443985 0.168362Q0.525796 0.113698 0.616699 0.0760443Q0.707602 0.038391 0.804105 0.0191955Q0.900607 0 0.999 0Z" transform="matrix(0.9659258 -0.258819 0.258819 0.9659258 0.7016602 1.553238)" id="Rectangle-2" fill="#373737" stroke="none" />
    </g>
  </g>
</svg>