<?xml version="1.0" encoding="utf-8"?>
<svg width="32px" height="32px" viewBox="0 0 32 32" version="1.1" xmlns:xlink="http://www.w3.org/1999/xlink" xmlns="http://www.w3.org/2000/svg">
  <desc>Created with Lunacy</desc>
  <defs>
    <linearGradient x1="0.1337194" y1="0.37279442" x2="0.8254219" y2="0.6758312" id="gradient_1">
      <stop offset="0" stop-color="#FF0000" />
      <stop offset="0.495967746" stop-color="#FF6262" />
      <stop offset="1" stop-color="#FF3434" />
    </linearGradient>
    <path d="M0 0.913486C0 0.913486 2.4937 -0.67306 5.69996 0.335598C8.90622 1.34426 8.78747 2.60508 12.825 3.8659C14.5682 4.41027 15.9572 4.76661 16.973 4.99581C18.0847 5.24667 18.2608 5.94302 17.2403 6.45035C16.2064 6.9643 14.7264 7.54427 12.825 7.90053C8.78747 8.65703 8.14078 7.03524 5.5 7.41349C2.85922 7.79173 2.26186 9.41352 2.26186 9.41352C2.26186 9.41352 0 0.913486 0 0.913486Z" transform="translate(3 1.586514)" id="path_1" />
    <rect width="32" height="32" id="artboard_1" />
    <clipPath id="clip_1">
      <use xlink:href="#artboard_1" clip-rule="evenodd" />
    </clipPath>
    <clipPath id="clip_2">
      <use xlink:href="#path_1" />
    </clipPath>
  </defs>
  <g id="flag-remote" clip-path="url(#clip_1)">
    <use xlink:href="#artboard_1" stroke="none" fill="#A2E9FF" fill-opacity="0" />
    <g id="Red-flag-instance" transform="translate(5.000015 5.000002)">
      <g id="Rectangle">
        <use stroke="none" fill="url(#gradient_1)" xlink:href="#path_1" />
        <g clip-path="url(#clip_2)">
          <use xlink:href="#path_1" fill="none" stroke="#373737" stroke-width="1.4" />
        </g>
      </g>
      <path d="M0 2.5C0 1.11929 2.68629 0 6 0C9.31371 0 12 1.11929 12 2.5C12 3.88071 9.31371 5 6 5C2.68629 5 0 3.88071 0 2.5Z" transform="translate(0.9998779 16)" id="Ellipse-4" fill="#000000" fill-opacity="0.4" stroke="none" />
      <path d="M0 3C0 1.34315 3.13401 0 7 0C10.866 0 14 1.34315 14 3C14 4.65685 10.866 6 7 6C3.13401 6 0 4.65685 0 3Z" transform="translate(-0.0001220703 16)" id="Ellipse-5" fill="#000000" fill-opacity="0.4" stroke="none" />
      <path d="M0 2C0 0.89543 2.23858 0 5 0C7.76142 0 10 0.89543 10 2C10 3.10457 7.76142 4 5 4C2.23858 4 0 3.10457 0 2Z" transform="translate(1.999878 16)" id="Ellipse-6" fill="#000000" fill-opacity="0.4" stroke="none" />
      <path d="M0.999 0L2.001 0Q2.09939 0 2.19589 0.0191955Q2.2924 0.038391 2.3833 0.0760443Q2.4742 0.113698 2.55601 0.168362Q2.63782 0.223026 2.7074 0.2926Q2.77697 0.362175 2.83164 0.443985Q2.8863 0.525796 2.92395 0.616699Q2.96161 0.707602 2.9808 0.804105Q3 0.900607 3 0.999L3 17.001Q3 17.0994 2.9808 17.1959Q2.96161 17.2924 2.92395 17.3833Q2.8863 17.4742 2.83164 17.556Q2.77697 17.6378 2.7074 17.7074Q2.63782 17.777 2.55601 17.8316Q2.4742 17.8863 2.3833 17.924Q2.2924 17.9616 2.19589 17.9808Q2.09939 18 2.001 18L0.999 18Q0.900607 18 0.804105 17.9808Q0.707602 17.9616 0.616699 17.924Q0.525796 17.8863 0.443985 17.8316Q0.362175 17.777 0.2926 17.7074Q0.223026 17.6378 0.168362 17.556Q0.113698 17.4742 0.0760443 17.3833Q0.038391 17.2924 0.0191955 17.1959Q0 17.0994 0 17.001L0 0.999Q0 0.900607 0.0191955 0.804105Q0.038391 0.707602 0.0760443 0.616699Q0.113698 0.525796 0.168362 0.443985Q0.223026 0.362175 0.2926 0.2926Q0.362175 0.223026 0.443985 0.168362Q0.525796 0.113698 0.616699 0.0760443Q0.707602 0.038391 0.804105 0.0191955Q0.900607 0 0.999 0Z" transform="matrix(0.9659258 -0.258819 0.258819 0.9659258 0.7017822 1.553284)" id="Rectangle-2" fill="#373737" stroke="none" />
    </g>
  </g>
</svg>